<?xml version="1.0" standalone="no"?>
<!DOCTYPE svg PUBLIC "-//W3C//DTD SVG 20010904//EN"
 "http://www.w3.org/TR/2001/REC-SVG-20010904/DTD/svg10.dtd">
<svg version="1.0" xmlns="http://www.w3.org/2000/svg"
 width="290.000000pt" height="406.000000pt" viewBox="0 0 290.000000 406.000000"
 preserveAspectRatio="xMidYMid meet">

<g transform="translate(0.000000,406.000000) scale(0.100000,-0.100000)"
fill="#000000" stroke="none">
<path d="M1185 3995 c-300 -48 -558 -178 -765 -385 -191 -191 -323 -438 -377
-708 -24 -123 -24 -386 0 -502 60 -278 169 -488 359 -685 157 -164 337 -278
548 -349 154 -52 269 -69 445 -69 224 0 381 37 590 137 380 183 651 533 742
956 25 119 25 401 0 519 -27 125 -64 235 -113 336 -24 50 -44 94 -44 98 0 4
63 7 140 7 l140 0 0 330 0 330 -792 -1 c-590 -1 -813 -4 -873 -14z m369 -675
c421 -107 641 -571 456 -959 -90 -189 -230 -310 -430 -373 -63 -19 -95 -23
-200 -22 -107 0 -137 4 -205 27 -235 78 -408 263 -465 498 -88 369 132 734
500 829 102 26 243 26 344 0z"/>
<path d="M332 923 c-38 -54 -123 -176 -190 -271 l-122 -173 92 -60 c182 -118
451 -240 670 -303 357 -103 760 -111 1133 -24 229 53 538 185 743 318 l93 60
-52 72 c-28 40 -114 164 -191 274 l-140 202 -80 -50 c-223 -138 -455 -225
-688 -258 -109 -15 -345 -13 -452 4 -235 39 -459 126 -671 262 -37 24 -70 44
-72 44 -2 0 -35 -44 -73 -97z"/>
</g>
</svg>
